<?xml version="1.0" standalone="no"?>
<!DOCTYPE svg PUBLIC "-//W3C//DTD SVG 20010904//EN"
 "http://www.w3.org/TR/2001/REC-SVG-20010904/DTD/svg10.dtd">
<svg version="1.0" xmlns="http://www.w3.org/2000/svg"
 width="850.000000pt" height="850.000000pt" viewBox="0 0 850.000000 850.000000"
 preserveAspectRatio="xMidYMid meet">
<metadata>
Created by potrace 1.14, written by Peter Selinger 2001-2017
</metadata>
<g transform="translate(0.000000,850.000000) scale(0.100000,-0.100000)"
fill="#000000" stroke="none">
<path d="M3967 7844 c-1 -1 -69 -5 -152 -8 -82 -4 -166 -9 -185 -11 -132 -14
-276 -33 -311 -41 -13 -3 -38 -7 -56 -10 -57 -8 -276 -61 -373 -91 -225 -70
-441 -163 -640 -277 -242 -139 -453 -300 -650 -496 -118 -117 -231 -241 -238
-260 -2 -4 36 -41 84 -81 47 -41 98 -84 113 -96 30 -27 37 -28 48 -9 26 46
265 290 376 385 207 177 500 358 737 456 300 124 653 207 990 232 183 14 632
7 729 -12 9 -2 44 -6 76 -10 81 -10 238 -40 365 -71 855 -210 1576 -748 1995
-1488 138 -244 247 -523 311 -792 l29 -122 151 1 151 1 -8 28 c-4 16 -8 29 -7
31 3 28 -59 267 -108 412 -247 741 -717 1340 -1389 1770 -209 134 -540 289
-790 370 -149 48 -405 112 -520 129 -22 4 -65 10 -95 16 -57 9 -142 19 -220
26 -82 7 -409 21 -413 18z"/>
<path d="M610 7125 c32 -55 85 -134 204 -305 108 -155 104 -150 139 -195 13
-16 75 -104 137 -195 62 -91 152 -219 200 -285 48 -66 143 -204 212 -306 134
-199 167 -247 183 -265 6 -6 21 -26 35 -44 97 -130 383 -434 575 -610 178
-165 428 -376 621 -525 154 -120 382 -285 393 -285 5 0 11 -3 13 -8 4 -11 126
-92 137 -92 5 0 11 -4 13 -8 4 -9 138 -93 303 -189 437 -255 913 -458 1318
-562 107 -28 136 -34 237 -49 l45 -7 -1 -60 c-1 -65 -5 -96 -24 -165 -7 -25
-13 -49 -15 -55 -62 -274 -247 -608 -453 -819 -231 -236 -641 -469 -1077 -609
-112 -37 -277 -82 -327 -91 -15 -3 -31 -7 -36 -10 -4 -3 -30 -7 -56 -11 -27
-3 -52 -7 -56 -10 -7 -4 -155 -28 -255 -41 -22 -3 -51 -7 -65 -10 -155 -25
-664 -25 -811 1 -13 2 -51 9 -84 14 -33 6 -73 13 -90 16 -16 4 -27 4 -25 2 25
-24 357 -215 475 -272 317 -155 711 -284 975 -319 25 -3 54 -8 65 -10 102 -19
263 -29 455 -30 152 0 357 9 405 18 11 2 52 7 90 10 39 4 77 9 85 11 8 2 35 7
60 10 161 22 529 124 685 190 237 100 377 170 540 268 159 96 363 245 499 366
53 46 305 299 331 332 11 13 41 49 66 79 25 30 69 87 97 125 28 39 55 75 60
80 4 6 30 44 56 85 27 41 59 91 71 110 77 118 201 368 240 483 23 68 24 82 14
120 -18 68 -12 243 12 304 5 13 7 23 5 23 -2 0 4 28 14 61 l19 62 -52 -8
c-119 -17 -355 -12 -469 9 -12 2 -41 7 -63 11 -334 57 -764 188 -1255 380 -52
21 -113 45 -135 55 -22 10 -75 31 -117 48 -367 146 -1085 492 -1412 681 -48
28 -90 51 -92 51 -3 0 -17 8 -32 19 -15 10 -81 51 -147 92 -626 383 -1434 999
-2195 1675 -19 17 -78 68 -130 114 -52 45 -144 128 -204 184 -60 55 -127 118
-150 139 -22 21 -72 68 -111 104 -38 37 -92 87 -119 112 l-49 46 23 -40z"/>
<path d="M952 6124 c4 -6 10 -24 12 -40 6 -30 35 -136 80 -287 14 -48 26 -89
26 -91 0 -3 138 -96 208 -140 108 -68 404 -197 418 -183 2 2 -53 77 -122 167
-69 90 -154 205 -189 255 -63 90 -64 91 -227 193 -89 57 -174 111 -188 120
-13 9 -21 12 -18 6z"/>
<path d="M410 6052 c0 -9 185 -280 268 -392 178 -240 259 -333 513 -589 170
-172 336 -298 539 -413 25 -14 95 -54 155 -89 61 -34 155 -86 210 -116 93 -50
832 -418 955 -476 30 -14 114 -53 185 -87 72 -34 157 -75 190 -90 57 -26 91
-42 270 -125 44 -20 105 -48 135 -62 68 -31 182 -85 193 -90 4 -2 7 -2 7 1 0
3 -65 41 -175 100 -90 49 -430 261 -605 378 -586 391 -1055 782 -1340 1118
-85 100 -94 107 -143 119 -210 51 -410 151 -825 413 -260 165 -362 240 -474
349 -32 31 -58 54 -58 51z"/>
<path d="M637 5358 c-73 -204 -128 -415 -152 -583 -3 -22 -8 -51 -10 -65 -2
-14 -7 -54 -10 -90 -3 -36 -8 -83 -10 -105 -7 -58 -7 -440 -1 -510 19 -214 24
-262 30 -290 2 -11 7 -45 11 -75 6 -46 18 -111 40 -210 42 -192 119 -437 185
-585 166 -373 374 -683 642 -956 118 -120 184 -160 308 -183 90 -18 329 -15
378 4 l33 12 -53 25 c-365 168 -766 664 -1016 1253 -70 164 -174 488 -198 614
-2 11 -6 32 -9 46 -6 28 -31 176 -39 230 -15 95 -21 212 -21 390 1 175 4 243
19 375 10 89 46 253 87 393 l30 103 -44 52 c-24 29 -72 90 -107 137 -34 47
-63 86 -65 88 -1 1 -14 -30 -28 -70z"/>
<path d="M7189 4906 c-2 -2 -31 -6 -64 -9 -235 -22 -529 -180 -870 -466 -100
-84 -423 -403 -473 -467 l-32 -41 138 -60 c75 -33 153 -66 172 -73 19 -7 49
-19 65 -26 88 -37 413 -130 515 -148 14 -2 43 -7 65 -11 22 -4 48 -9 59 -11
134 -24 487 -23 527 2 4 2 24 6 45 10 22 3 42 8 45 10 3 2 32 47 64 100 210
353 523 632 679 607 20 -3 54 -21 76 -40 l41 -35 -6 33 c-19 110 -55 190 -123
275 -140 173 -348 284 -637 339 -34 7 -281 16 -286 11z"/>
<path d="M2275 4236 c11 -8 143 -101 292 -207 150 -107 312 -222 360 -256 49
-34 211 -149 360 -255 150 -106 335 -237 411 -290 76 -54 153 -108 171 -120
17 -13 85 -59 149 -103 64 -44 122 -84 128 -90 6 -5 52 -37 102 -70 51 -33 91
-63 89 -67 -14 -44 -387 -428 -537 -554 -330 -277 -683 -449 -1143 -559 -139
-33 -192 -42 -389 -69 -70 -10 -259 -20 -385 -20 -73 0 -133 -2 -133 -4 0 -16
242 -104 324 -117 12 -2 48 -8 81 -14 130 -21 189 -25 410 -25 196 0 352 7
416 19 9 2 40 6 69 10 29 4 62 9 74 11 11 2 38 6 61 10 22 3 83 15 135 26 52
10 106 22 120 24 206 39 547 158 741 258 263 135 521 340 661 525 24 31 48 62
55 69 28 29 130 204 174 297 46 99 126 330 131 382 2 15 -1 28 -7 28 -32 3
-126 17 -165 25 -25 6 -56 12 -70 14 -74 12 -330 83 -485 133 -576 188 -1437
576 -2124 957 -83 46 -114 59 -76 32z"/>
</g>
</svg>
